<svg width="164" height="156" viewBox="0 0 164 156" fill="none" xmlns="http://www.w3.org/2000/svg">
<path d="M25.5184 61.9423C25.3071 63.2419 24.8967 64.4168 24.2873 65.467C23.6613 66.5152 22.8857 67.3943 21.9604 68.1044C21.0351 68.8144 19.9973 69.3347 18.8469 69.6653C17.6992 69.9794 16.4883 70.0595 15.2142 69.9054C13.9402 69.7514 12.8015 69.3873 11.7982 68.8131C10.7976 68.2224 9.96573 67.4761 9.30259 66.5739C8.64211 65.6554 8.18639 64.619 7.9354 63.4648C7.66787 62.3086 7.63977 61.0807 7.85108 59.7811C8.05437 58.5308 8.46073 57.3806 9.07014 56.3305C9.66301 55.2783 10.4429 54.4248 11.4098 53.7701L12.3877 55.0709C11.5447 55.6903 10.8964 56.4087 10.4429 57.2261C9.97292 58.0415 9.65767 58.9428 9.49718 59.9298C9.32866 60.9662 9.35419 61.9506 9.57376 62.8829C9.77678 63.8132 10.1557 64.6474 10.7106 65.3855C11.2489 66.1215 11.9257 66.7317 12.7412 67.2161C13.5427 67.6821 14.4647 67.9781 15.5071 68.1041C16.5495 68.2301 17.5386 68.1652 18.4744 67.9093C19.3963 67.635 20.2417 67.2088 21.0106 66.6308C21.7629 66.0508 22.3932 65.3386 22.9017 64.4943C23.3936 63.648 23.7238 62.7066 23.8923 61.6703C24.0528 60.6832 24.0372 59.742 23.8453 58.8465C23.6535 57.9511 23.2511 57.1057 22.6381 56.3103L23.9932 55.2915C24.714 56.1503 25.1999 57.1568 25.4508 58.311C25.7018 59.4652 25.7243 60.6756 25.5184 61.9423Z" fill="black"/>
<path d="M26.5411 56.4398L10.469 49.5161L11.2334 48.1966L27.78 46.6748L27.379 47.367L18.8155 35.1092L19.58 33.7897L35.6521 40.7134L34.7623 42.2492L21.2388 36.4235L21.4518 36.0557L29.2725 47.3177L28.8338 48.0748L13.6692 49.4892L13.9073 49.0781L27.4309 54.9039L26.5411 56.4398Z" fill="black"/>
<path d="M43.1413 34.9746C42.119 35.8044 41.0081 36.43 39.8087 36.8515C38.6099 37.2513 37.392 37.4436 36.1551 37.4283C34.9188 37.3914 33.7263 37.1596 32.5774 36.7332C31.4292 36.285 30.382 35.6275 29.4357 34.7606C28.4894 33.8937 27.7977 32.9582 27.3606 31.9541C26.9241 30.9282 26.7279 29.8877 26.7721 28.8327C26.817 27.7558 27.1131 26.7192 27.6606 25.7227C28.1958 24.715 28.981 23.791 30.0162 22.9508C31.0385 22.121 32.1491 21.5062 33.3479 21.1065C34.5344 20.6954 35.7397 20.5028 36.9637 20.5285C38.2006 20.5437 39.3931 20.7754 40.5413 21.2236C41.7025 21.6613 42.7562 22.3136 43.7025 23.1805C44.6488 24.0474 45.3401 24.9938 45.7766 26.0196C46.226 27.035 46.4222 28.0755 46.3651 29.1411C46.3209 30.1961 46.0312 31.2275 45.496 32.2352C44.9485 33.2317 44.1636 34.1448 43.1413 34.9746ZM41.9247 33.86C42.7399 33.1983 43.3614 32.4709 43.7892 31.6778C44.2176 30.8629 44.4445 30.0311 44.4699 29.1824C44.4959 28.3119 44.3318 27.4684 43.9774 26.6519C43.6108 25.8242 43.0403 25.0556 42.2661 24.3464C41.4919 23.6371 40.6429 23.1053 39.7191 22.7509C38.7831 22.3853 37.8166 22.1931 36.8197 22.1741C35.8235 22.1334 34.8469 22.2785 33.8901 22.6092C32.9339 22.9182 32.0481 23.4036 31.2329 24.0653C30.4176 24.727 29.7958 25.4653 29.3674 26.2802C28.9267 27.0838 28.6933 27.9209 28.6673 28.7913C28.6419 29.64 28.8061 30.4835 29.1598 31.3218C29.5141 32.1383 30.0784 32.9012 30.8526 33.6105C31.6146 34.3085 32.4636 34.8403 33.3996 35.2059C34.3486 35.561 35.3212 35.7589 36.3174 35.7996C37.3143 35.8185 38.2974 35.6682 39.2665 35.3487C40.2234 35.018 41.1094 34.5217 41.9247 33.86Z" fill="black"/>
<path d="M55.5014 28.1769L47.0809 14.1037L47.7945 14.3295L41.7187 17.0327L40.8972 15.6597L53.8026 9.918L54.6241 11.291L48.5711 13.984L48.7484 13.3618L57.1688 27.4351L55.5014 28.1769Z" fill="black"/>
<path d="M63.5031 24.4334L59.0082 7.52054L65.4339 6.25068C66.8891 5.96311 68.202 5.94948 69.3726 6.2098C70.5389 6.45402 71.5156 6.9561 72.3027 7.71604C73.1018 8.45665 73.6641 9.43904 73.9894 10.6632C74.3062 11.8552 74.294 12.9426 73.9529 13.9255C73.6239 14.889 72.9983 15.7078 72.076 16.3817C71.1537 17.0556 69.9649 17.5364 68.5098 17.8239L63.0896 18.8951L63.6742 17.8895L65.318 24.0748L63.5031 24.4334ZM63.7127 18.0344L62.6722 17.3246L68.0433 16.2631C69.7601 15.9239 70.9637 15.3046 71.6539 14.4052C72.3563 13.4866 72.5298 12.3588 72.1745 11.0219C71.8149 9.66884 71.087 8.71071 69.9908 8.14748C68.911 7.58102 67.5127 7.46742 65.7959 7.8067L60.4247 8.86814L61.0093 7.86255L63.7127 18.0344Z" fill="black"/>
<path d="M80.9757 12.4841L90.2198 12.8155L90.1439 14.3887L80.8999 14.0573L80.9757 12.4841ZM80.7867 20.5569L91.3049 20.934L91.2278 22.5321L78.8608 22.0887L79.7036 4.60905L91.6959 5.03902L91.6189 6.63716L81.4754 6.27348L80.7867 20.5569Z" fill="black"/>
<path d="M96.7334 23.6692L102.007 8.14034L102.331 8.7362L95.8838 7.10795L96.3983 5.59294L110.093 9.05144L109.579 10.5665L103.155 8.94432L103.777 8.58719L98.5028 24.116L96.7334 23.6692Z" fill="black"/>
<path d="M117.961 20.3754C119.8 21.3174 120.937 22.4196 121.372 23.6821C121.831 24.9384 121.546 26.3147 120.515 27.8109C119.447 29.362 118.115 30.2766 116.519 30.5547C114.932 30.8191 113.175 30.4575 111.246 29.47L105.06 26.3022L114.986 11.8893L116.61 12.7211L113.065 17.8686L117.961 20.3754ZM112.038 28.2324C113.477 28.9692 114.771 29.2325 115.919 29.022C117.082 28.8192 118.056 28.1482 118.84 27.0089C119.625 25.8695 119.831 24.8423 119.458 23.9272C119.094 22.9983 118.185 22.1616 116.732 21.4171L112.214 19.104L107.521 25.9192L112.038 28.2324Z" fill="black"/>
<path d="M122.161 36.1477L136.764 26.5035L141.595 31.9429C142.824 33.3261 143.467 34.6214 143.524 35.829C143.607 37.0398 143.036 38.0494 141.812 38.8577C140.602 39.6567 139.347 39.8829 138.046 39.5361C136.759 39.1801 135.567 38.3852 134.472 37.1516L135.275 37.1249C136.57 38.5829 137.235 39.9032 137.271 41.0858C137.306 42.2684 136.705 43.2685 135.467 44.0859C134.216 44.9126 132.888 45.1568 131.484 44.8185C130.105 44.4835 128.713 43.5247 127.308 41.9421L122.161 36.1477ZM124.604 36.6993L128.538 41.1293C129.523 42.2383 130.5 42.9279 131.468 43.198C132.436 43.4681 133.4 43.2863 134.36 42.6525C135.305 42.028 135.746 41.2821 135.682 40.415C135.618 39.5479 135.093 38.5598 134.108 37.4507L130.174 33.0208L124.604 36.6993ZM131.363 32.2355L134.916 36.2355C135.812 37.2449 136.721 37.8705 137.642 38.1124C138.588 38.3576 139.506 38.1863 140.396 37.5985C141.286 37.0106 141.71 36.2956 141.668 35.4534C141.651 34.6145 141.194 33.6903 140.298 32.681L136.745 28.6809L131.363 32.2355Z" fill="black"/>
<path d="M135.543 54.2694C135.005 53.0677 134.713 51.8889 134.668 50.7328C134.638 49.5715 134.836 48.4918 135.262 47.4937C135.687 46.4956 136.318 45.6125 137.155 44.8443C137.999 44.0913 139.03 43.5121 140.247 43.1066C141.465 42.7011 142.68 42.5326 143.891 42.601C145.11 42.6846 146.266 42.9727 147.358 43.4652C148.458 43.973 149.442 44.668 150.309 45.5502C151.193 46.4272 151.903 47.4665 152.442 48.6681C152.959 49.8241 153.241 50.9802 153.286 52.1362C153.347 53.287 153.131 54.3465 152.638 55.3148L151.043 54.6137C151.446 53.7279 151.62 52.8395 151.567 51.9485C151.529 51.0522 151.305 50.1477 150.896 49.2351C150.467 48.2768 149.895 47.4449 149.179 46.7394C148.479 46.0286 147.677 45.4743 146.772 45.0765C145.882 44.6734 144.94 44.4365 143.946 44.3657C142.974 44.3049 141.989 44.4404 140.993 44.7722C139.997 45.1039 139.155 45.5767 138.467 46.1904C137.801 46.8141 137.288 47.5355 136.928 48.3545C136.584 49.1684 136.422 50.0439 136.442 50.9811C136.478 51.9131 136.71 52.8582 137.139 53.8165C137.548 54.7291 138.088 55.5283 138.758 56.2139C139.429 56.8996 140.258 57.4536 141.247 57.8759L140.612 59.3196C139.493 58.8884 138.499 58.2318 137.631 57.3496C136.764 56.4673 136.068 55.4406 135.543 54.2694Z" fill="black"/>
<path d="M148.128 60.921L149.216 70.1068L147.647 70.245L146.559 61.0592L148.128 60.921ZM140.108 61.8281L141.346 72.2801L139.752 72.4204L138.296 60.1313L155.729 58.596L157.14 70.5127L155.547 70.6531L154.353 60.5735L140.108 61.8281Z" fill="black"/>
<path d="M137.926 94.7198C138.181 93.4282 138.632 92.2662 139.277 91.2337C139.939 90.2036 140.745 89.3462 141.695 88.6613C142.645 87.9764 143.701 87.4837 144.864 87.1833C146.023 86.8993 147.237 86.8505 148.507 87.037C149.777 87.2235 150.904 87.6161 151.888 88.215C152.87 88.8302 153.677 89.5965 154.31 90.5138C154.94 91.4476 155.361 92.4936 155.573 93.652C155.801 94.8128 155.788 96.0391 155.532 97.3307C155.286 98.5733 154.84 99.7108 154.195 100.743C153.566 101.778 152.757 102.61 151.767 103.238L150.832 101.915C151.697 101.319 152.37 100.618 152.852 99.8141C153.35 99.0124 153.696 98.121 153.89 97.14C154.094 96.11 154.101 95.1269 153.913 94.1907C153.742 93.257 153.391 92.4147 152.861 91.6638C152.347 90.9154 151.69 90.289 150.891 89.7846C150.104 89.2989 149.192 88.9799 148.153 88.8273C147.114 88.6747 146.122 88.7141 145.177 88.9455C144.245 89.1956 143.385 89.5992 142.596 90.1563C141.823 90.7159 141.168 91.4104 140.631 92.2401C140.11 93.0721 139.747 94.0031 139.544 95.0332C139.35 96.0141 139.333 96.9539 139.495 97.8526C139.657 98.7512 140.031 99.6053 140.617 100.415L139.226 101.397C138.534 100.521 138.082 99.5042 137.87 98.3458C137.658 97.1874 137.677 95.9788 137.926 94.7198Z" fill="black"/>
<path d="M136.645 100.203L152.528 107.552L151.721 108.846L135.101 109.903L135.524 109.225L143.72 121.682L142.914 122.976L127.031 115.627L127.97 114.121L141.334 120.304L141.109 120.665L133.626 109.221L134.089 108.479L149.322 107.49L149.07 107.893L135.706 101.71L136.645 100.203Z" fill="black"/>
<path d="M119.313 121.167C120.359 120.368 121.488 119.775 122.699 119.389C123.909 119.024 125.132 118.868 126.368 118.919C127.603 118.992 128.788 119.258 129.924 119.718C131.059 120.2 132.086 120.887 133.007 121.782C133.928 122.676 134.592 123.631 134.999 124.647C135.406 125.686 135.571 126.731 135.496 127.785C135.42 128.86 135.094 129.887 134.517 130.867C133.953 131.859 133.141 132.759 132.082 133.569C131.036 134.368 129.908 134.951 128.698 135.315C127.499 135.691 126.289 135.849 125.066 135.787C123.83 135.736 122.645 135.469 121.51 134.988C120.362 134.516 119.328 133.834 118.408 132.94C117.487 132.046 116.824 131.079 116.417 130.041C115.998 129.013 115.832 127.967 115.92 126.904C115.995 125.851 116.315 124.828 116.879 123.837C117.456 122.857 118.267 121.967 119.313 121.167ZM120.497 122.317C119.662 122.955 119.02 123.664 118.569 124.444C118.117 125.246 117.866 126.071 117.816 126.918C117.764 127.787 117.904 128.635 118.234 129.462C118.576 130.3 119.124 131.085 119.877 131.816C120.631 132.548 121.464 133.104 122.377 133.485C123.302 133.878 124.262 134.098 125.258 134.147C126.253 134.216 127.233 134.1 128.199 133.797C129.164 133.516 130.064 133.057 130.898 132.419C131.732 131.782 132.376 131.062 132.828 130.26C133.292 129.47 133.549 128.64 133.601 127.77C133.651 126.923 133.511 126.075 133.182 125.227C132.852 124.4 132.31 123.621 131.557 122.89C130.816 122.17 129.983 121.614 129.058 121.221C128.119 120.838 127.153 120.612 126.158 120.542C125.162 120.494 124.175 120.616 123.197 120.907C122.231 121.209 121.331 121.679 120.497 122.317Z" fill="black"/>
<path d="M106.736 127.64L114.707 141.973L114.002 141.727L120.149 139.189L120.926 140.588L107.87 145.977L107.092 144.579L113.216 142.051L113.02 142.669L105.05 128.336L106.736 127.64Z" fill="black"/>
<path d="M98.6227 131.208L102.548 148.262L96.0914 149.366C94.6292 149.615 93.3182 149.595 92.1584 149.303C91.0023 149.028 90.044 148.5 89.2836 147.718C88.5105 146.955 87.9818 145.957 87.6977 144.723C87.4211 143.521 87.4694 142.432 87.8425 141.457C88.203 140.5 88.8547 139.697 89.7977 139.046C90.7407 138.396 91.9433 137.945 93.4055 137.696L98.8516 136.765L98.2346 137.757L96.7991 131.52L98.6227 131.208ZM98.201 137.611L99.216 138.349L93.8192 139.271C92.0942 139.566 90.8723 140.154 90.1533 141.037C89.4217 141.938 89.211 143.063 89.5213 144.411C89.8353 145.775 90.5301 146.754 91.6056 147.347C92.6647 147.942 94.0568 148.093 95.7818 147.798L101.179 146.876L100.562 147.868L98.201 137.611Z" fill="black"/>
<path d="M80.7549 142.755L71.5223 142.189L71.652 140.619L80.8846 141.186L80.7549 142.755ZM81.2204 134.695L70.7151 134.051L70.8469 132.456L83.1987 133.214L81.7573 150.655L69.7798 149.92L69.9116 148.325L80.0426 148.947L81.2204 134.695Z" fill="black"/>
<path d="M65.3546 131.227L59.5631 146.57L59.2582 145.967L65.6616 147.762L65.0966 149.259L51.4954 145.448L52.0604 143.951L58.4397 145.738L57.8058 146.078L63.5973 130.734L65.3546 131.227Z" fill="black"/>
<path d="M43.9923 133.959C42.1789 132.968 41.0737 131.836 40.6766 130.565C40.2549 129.299 40.5828 127.935 41.6601 126.472C42.7769 124.956 44.1387 124.082 45.7455 123.849C47.3424 123.631 49.0914 124.041 50.9926 125.08L57.0908 128.414L46.7133 142.505L45.112 141.63L48.8182 136.597L43.9923 133.959ZM50.1618 126.292C48.7432 125.516 47.4559 125.217 46.2997 125.395C45.1289 125.564 44.1333 126.206 43.313 127.32C42.4927 128.433 42.2554 129.452 42.6011 130.375C42.937 131.312 43.8215 132.172 45.2547 132.955L49.7077 135.389L54.6148 128.726L50.1618 126.292Z" fill="black"/>
<path d="M40.2872 118.125L25.4164 127.35L20.7511 121.768C19.5647 120.348 18.9606 119.034 18.9388 117.824C18.892 116.61 19.4918 115.617 20.7382 114.843C21.9703 114.079 23.231 113.889 24.5203 114.274C25.7954 114.667 26.962 115.497 28.0202 116.763L27.2165 116.767C25.966 115.27 25.3405 113.93 25.34 112.746C25.3396 111.561 25.9695 110.578 27.23 109.796C28.5047 109.006 29.8381 108.8 31.2302 109.179C32.5975 109.554 33.9599 110.554 35.3172 112.178L40.2872 118.125ZM37.8634 117.502L34.0639 112.955C33.1126 111.817 32.1575 111.099 31.1985 110.801C30.2395 110.502 29.2714 110.656 28.2941 111.263C27.3311 111.86 26.8688 112.594 26.9072 113.463C26.9457 114.332 27.4405 115.336 28.3917 116.474L32.1913 121.021L37.8634 117.502ZM30.9804 121.772L27.5496 117.667C26.6838 116.631 25.7946 115.979 24.8818 115.71C23.9441 115.437 23.0221 115.582 22.1157 116.144C21.2093 116.707 20.7646 117.41 20.7817 118.253C20.7739 119.093 21.2029 120.031 22.0686 121.067L25.4995 125.172L30.9804 121.772Z" fill="black"/>
<path d="M27.5197 99.6105C28.0185 100.829 28.272 102.018 28.2804 103.177C28.2728 104.342 28.041 105.418 27.5849 106.406C27.1288 107.395 26.4708 108.262 25.611 109.009C24.7449 109.741 23.6979 110.293 22.47 110.666C21.2421 111.039 20.0247 111.175 18.8177 111.073C17.6043 110.956 16.4603 110.636 15.3855 110.113C14.3044 109.574 13.345 108.851 12.5074 107.944C11.6538 107.041 10.9777 105.98 10.4789 104.762C9.99914 103.59 9.75506 102.424 9.74669 101.264C9.72238 100.11 9.97166 99.0541 10.4945 98.0975L12.0639 98.8434C11.6337 99.7198 11.4312 100.605 11.4565 101.499C11.4659 102.398 11.66 103.31 12.0388 104.236C12.4365 105.208 12.9812 106.057 13.673 106.783C14.3488 107.514 15.1319 108.091 16.0223 108.515C16.8967 108.943 17.8292 109.206 18.8196 109.304C19.7877 109.391 20.7741 109.282 21.7787 108.977C22.7834 108.672 23.6389 108.221 24.3452 107.625C25.0292 107.018 25.5639 106.309 25.9492 105.499C26.3186 104.693 26.5083 103.82 26.5182 102.88C26.5122 101.946 26.3103 100.993 25.9126 100.021C25.5338 99.0953 25.0208 98.28 24.3735 97.5748C23.7263 96.8696 22.9161 96.292 21.943 95.8419L22.6222 94.4129C23.7259 94.8753 24.6965 95.5603 25.5341 96.4678C26.3717 97.3752 27.0336 98.4228 27.5197 99.6105Z" fill="black"/>
<path d="M15.2147 92.6273L14.4404 83.4098L16.0123 83.3118L16.7867 92.5293L15.2147 92.6273ZM23.2573 91.9254L22.3762 81.4374L23.9731 81.3378L25.0091 93.6693L7.54305 94.7586L6.53845 82.8007L8.13535 82.7011L8.98507 92.8155L23.2573 91.9254Z" fill="black"/>
<circle cx="82.5" cy="77.5" r="9.5" fill="black"/>
</svg>
