<svg width="473" height="197" viewBox="0 0 473 197" fill="none" xmlns="http://www.w3.org/2000/svg">
<path d="M134.509 118V117.46H139.549C141.149 117.46 142.129 117.3 142.489 116.98C142.849 116.62 143.029 115.72 143.029 114.28V75.94H139.069C135.789 75.94 133.529 76.4 132.289 77.32C131.049 78.2 130.349 80.04 130.189 82.84L129.949 85.3L128.749 85.24L129.769 71.32L130.489 71.38L130.189 74.86H160.909L160.609 71.44L161.329 71.38L162.289 85.24L161.089 85.3L160.909 82.84C160.669 80.04 159.929 78.2 158.689 77.32C157.489 76.4 155.269 75.94 152.029 75.94H148.189V114.28C148.189 115.72 148.369 116.62 148.729 116.98C149.089 117.3 150.069 117.46 151.669 117.46H156.589V118H134.509ZM174.337 76V76.3C175.057 77.18 175.417 78.42 175.417 80.02V100.12H179.137C183.297 100.12 186.457 99.1 188.617 97.06C190.817 94.98 191.917 91.98 191.917 88.06C191.917 84.14 190.817 81.16 188.617 79.12C186.457 77.04 183.297 76 179.137 76H174.337ZM164.497 118V117.46H166.777C168.377 117.46 169.357 117.3 169.717 116.98C170.117 116.62 170.317 115.72 170.317 114.28V78.58C170.317 77.14 170.117 76.26 169.717 75.94C169.357 75.58 168.377 75.4 166.777 75.4H164.497V74.86H181.117C186.077 74.86 190.077 76.08 193.117 78.52C196.157 80.92 197.677 84.1 197.677 88.06C197.677 91.98 196.157 95.16 193.117 97.6C190.077 100 186.077 101.2 181.117 101.2H175.417V114.28C175.417 115.72 175.617 116.62 176.017 116.98C176.417 117.3 177.417 117.46 179.017 117.46H180.637V118H164.497ZM193.895 118V117.46H194.915C195.675 117.46 196.315 117.16 196.835 116.56C197.355 115.92 197.935 114.98 198.575 113.74L217.115 74.86H222.215V75.58C222.215 77.1 222.415 78.26 222.815 79.06L238.355 113.74C238.795 114.74 239.075 115.36 239.195 115.6C239.315 115.84 239.535 116.18 239.855 116.62C240.215 117.02 240.555 117.26 240.875 117.34C241.195 117.42 241.655 117.46 242.255 117.46H242.795V118H230.195V117.46H235.235V117.34C234.675 117.14 233.995 116.2 233.195 114.52L229.535 106.3H203.375L199.835 113.74C199.595 114.38 199.475 114.84 199.475 115.12C199.475 115.8 199.755 116.36 200.315 116.8C200.915 117.24 201.695 117.46 202.655 117.46H205.895V118H193.895ZM203.915 105.22H229.055L217.835 80.2C217.475 79.48 217.295 78.68 217.295 77.8H216.695C216.695 78.32 216.435 79.12 215.915 80.2L203.915 105.22ZM254.435 116.92H261.935C266.055 116.92 269.355 115.88 271.835 113.8C274.355 111.72 275.615 108.96 275.615 105.52C275.615 101.92 274.295 98.96 271.655 96.64C269.015 94.32 265.635 93.16 261.515 93.16H258.035V92.14H260.675C263.595 92.14 265.995 91.38 267.875 89.86C269.755 88.34 270.695 86.4 270.695 84.04C270.695 81.6 269.695 79.64 267.695 78.16C265.695 76.68 263.055 75.94 259.775 75.94H254.435V76C255.155 76.68 255.515 77.72 255.515 79.12V113.74C255.515 115.1 255.155 116.12 254.435 116.8V116.92ZM244.595 118V117.4H246.875C248.475 117.4 249.455 117.24 249.815 116.92C250.215 116.56 250.415 115.66 250.415 114.22V78.58C250.415 77.14 250.215 76.26 249.815 75.94C249.455 75.58 248.475 75.4 246.875 75.4H244.595V74.86H260.675C265.355 74.86 269.135 75.7 272.015 77.38C274.895 79.02 276.335 81.2 276.335 83.92C276.335 85.76 275.475 87.54 273.755 89.26C272.035 90.94 269.735 91.96 266.855 92.32V92.56C270.975 92.84 274.415 94.28 277.175 96.88C279.935 99.48 281.315 102.36 281.315 105.52C281.315 109.2 279.575 112.2 276.095 114.52C272.655 116.84 268.335 118 263.135 118H244.595ZM317.277 118V117.46H319.557C321.157 117.46 322.137 117.3 322.497 116.98C322.857 116.66 323.037 115.78 323.037 114.34V78.52C323.037 77.08 322.857 76.2 322.497 75.88C322.137 75.56 321.157 75.4 319.557 75.4H317.277V74.86H334.077V75.52H331.797C330.197 75.52 329.197 75.68 328.797 76C328.397 76.32 328.197 77.2 328.197 78.64V114.34C328.197 115.78 328.397 116.66 328.797 116.98C329.197 117.3 330.197 117.46 331.797 117.46H334.077V118H317.277ZM283.677 118V117.4H285.957C287.557 117.4 288.537 117.24 288.897 116.92C289.297 116.56 289.497 115.66 289.497 114.22V78.52C289.497 77.08 289.297 76.2 288.897 75.88C288.537 75.56 287.557 75.4 285.957 75.4H283.677V74.86H300.477V75.4H298.197C296.597 75.4 295.597 75.58 295.197 75.94C294.797 76.3 294.597 77.2 294.597 78.64V95.8H299.637C304.677 95.8 308.737 96.82 311.817 98.86C314.897 100.9 316.437 103.58 316.437 106.9C316.437 110.22 314.897 112.9 311.817 114.94C308.737 116.98 304.677 118 299.637 118H283.677ZM294.597 96.82V113.74C294.597 115.1 294.237 116.12 293.517 116.8V116.92H298.377C302.417 116.92 305.477 116.08 307.557 114.4C309.677 112.68 310.737 110.18 310.737 106.9C310.737 103.62 309.677 101.12 307.557 99.4C305.437 97.68 302.377 96.82 298.377 96.82H294.597Z" fill="black"/>
<path d="M359.929 77.74L359.869 77.02C359.869 75.82 360.069 74.78 360.469 73.9C360.869 73.02 361.349 72.34 361.909 71.86C362.469 71.34 363.229 70.92 364.189 70.6C365.149 70.28 366.029 70.06 366.829 69.94C367.629 69.82 368.609 69.7 369.769 69.58C373.489 69.26 375.849 68.92 376.849 68.56C378.849 67.88 379.849 66.54 379.849 64.54V63.82H380.809L380.929 65.44V66.46C380.929 69.1 380.149 70.84 378.589 71.68C377.029 72.52 374.729 72.94 371.689 72.94H370.309C371.709 73.7 372.829 74.8 373.669 76.24C374.509 77.64 374.929 79.14 374.929 80.74C374.929 83.94 373.529 86.52 370.729 88.48C367.969 90.4 364.309 91.36 359.749 91.36C355.029 91.36 351.229 90.3 348.349 88.18C345.469 86.02 344.029 83.18 344.029 79.66C344.029 76.5 345.049 73.8 347.089 71.56C349.169 69.28 351.829 67.94 355.069 67.54V67.48C353.349 67.2 351.909 66.28 350.749 64.72C349.629 63.16 349.069 61.44 349.069 59.56C349.069 57.12 350.049 55.16 352.009 53.68C353.969 52.16 356.549 51.4 359.749 51.4C361.749 51.4 363.449 51.66 364.849 52.18C365.809 52.54 366.549 53.12 367.069 53.92L367.189 53.86C367.149 53.7 367.129 53.36 367.129 52.84V51.58H367.729V59.62H367.129V58.66C366.929 56.54 366.129 54.98 364.729 53.98C363.369 52.98 361.709 52.48 359.749 52.48C357.549 52.48 355.769 53.12 354.409 54.4C353.089 55.64 352.429 57.3 352.429 59.38C352.429 61.42 353.069 63.24 354.349 64.84C355.629 66.44 357.269 67.24 359.269 67.24H360.349V68.32H358.969C355.969 68.32 353.609 69.32 351.889 71.32C350.209 73.32 349.369 76.12 349.369 79.72C349.369 82.8 350.449 85.28 352.609 87.16C354.809 89.04 357.689 89.98 361.249 89.98C365.009 89.98 368.029 89.14 370.309 87.46C372.629 85.74 373.789 83.48 373.789 80.68C373.789 78.68 373.089 76.92 371.689 75.4C370.289 73.88 368.489 73.12 366.289 73.12C364.649 73.24 363.369 73.62 362.449 74.26C361.569 74.9 361.129 75.96 361.129 77.44V77.74H359.929Z" fill="black"/>
<path d="M129.116 59V58.46H131.456C132.976 58.46 133.936 58.22 134.336 57.74C134.776 57.26 134.996 56.26 134.996 54.74V20.12C134.996 18.6 134.776 17.6 134.336 17.12C133.936 16.64 132.976 16.4 131.456 16.4H129.116V15.86H144.656V16.4H143.636C142.116 16.4 141.156 16.64 140.756 17.12C140.356 17.6 140.156 18.6 140.156 20.12V57.92H156.836V20.12C156.836 18.6 156.616 17.6 156.176 17.12C155.736 16.64 154.756 16.4 153.236 16.4H152.216V15.86H167.756V16.4H165.476C163.956 16.4 162.996 16.64 162.596 17.12C162.196 17.6 161.996 18.6 161.996 20.12V54.2C161.996 55.72 162.196 56.72 162.596 57.2C162.996 57.68 163.956 57.92 165.476 57.92H172.736V67.88H170.936V62.72C170.936 61.2 170.716 60.2 170.276 59.72C169.876 59.24 168.916 59 167.396 59H129.116ZM185.421 57.92H192.921C197.041 57.92 200.341 56.88 202.821 54.8C205.341 52.72 206.601 49.96 206.601 46.52C206.601 42.92 205.281 39.96 202.641 37.64C200.001 35.32 196.621 34.16 192.501 34.16H189.021V33.14H191.661C194.581 33.14 196.981 32.38 198.861 30.86C200.741 29.34 201.681 27.4 201.681 25.04C201.681 22.6 200.681 20.64 198.681 19.16C196.681 17.68 194.041 16.94 190.761 16.94H185.421V17C186.141 17.68 186.501 18.72 186.501 20.12V54.74C186.501 56.1 186.141 57.12 185.421 57.8V57.92ZM175.581 59V58.4H177.861C179.461 58.4 180.441 58.24 180.801 57.92C181.201 57.56 181.401 56.66 181.401 55.22V19.58C181.401 18.14 181.201 17.26 180.801 16.94C180.441 16.58 179.461 16.4 177.861 16.4H175.581V15.86H191.661C196.341 15.86 200.121 16.7 203.001 18.38C205.881 20.02 207.321 22.2 207.321 24.92C207.321 26.76 206.461 28.54 204.741 30.26C203.021 31.94 200.721 32.96 197.841 33.32V33.56C201.961 33.84 205.401 35.28 208.161 37.88C210.921 40.48 212.301 43.36 212.301 46.52C212.301 50.2 210.561 53.2 207.081 55.52C203.641 57.84 199.321 59 194.121 59H175.581ZM235.963 46.64H235.363V43.34C235.363 40.74 234.743 39.02 233.503 38.18C232.263 37.34 230.503 36.92 228.223 36.92H225.583V54.74C225.583 55.94 225.103 56.98 224.143 57.86V57.92H237.283C240.483 57.92 242.863 57.3 244.423 56.06C245.983 54.78 246.883 52.7 247.123 49.82L247.543 45.02H248.563L247.423 61.28L246.883 61.22L247.063 58.46H247.003C246.603 58.82 245.783 59 244.543 59H214.663V58.46H216.943C218.543 58.46 219.523 58.3 219.883 57.98C220.283 57.62 220.483 56.72 220.483 55.28V19.58C220.483 18.14 220.283 17.26 219.883 16.94C219.523 16.58 218.543 16.4 216.943 16.4H214.663V15.86H241.003C242.243 15.86 243.043 16.04 243.403 16.4H243.523L243.283 13.64L243.883 13.58L245.083 29.84H243.883L243.643 25.64C243.443 22.48 242.503 20.24 240.823 18.92C239.183 17.6 236.723 16.94 233.443 16.94H224.143V17C225.103 17.88 225.583 18.92 225.583 20.12V35.84H228.223C230.503 35.84 232.263 35.44 233.503 34.64C234.743 33.8 235.363 32.08 235.363 29.48V27.38H235.963V46.64ZM255.984 59V58.46H261.024C262.624 58.46 263.604 58.3 263.964 57.98C264.324 57.62 264.504 56.72 264.504 55.28V16.94H260.544C257.264 16.94 255.004 17.4 253.764 18.32C252.524 19.2 251.824 21.04 251.664 23.84L251.424 26.3L250.224 26.24L251.244 12.32L251.964 12.38L251.664 15.86H282.384L282.084 12.44L282.804 12.38L283.764 26.24L282.564 26.3L282.384 23.84C282.144 21.04 281.404 19.2 280.164 18.32C278.964 17.4 276.744 16.94 273.504 16.94H269.664V55.28C269.664 56.72 269.844 57.62 270.204 57.98C270.564 58.3 271.544 58.46 273.144 58.46H278.064V59H255.984ZM319.571 59V58.46H321.851C323.451 58.46 324.431 58.3 324.791 57.98C325.151 57.66 325.331 56.78 325.331 55.34V19.52C325.331 18.08 325.151 17.2 324.791 16.88C324.431 16.56 323.451 16.4 321.851 16.4H319.571V15.86H336.371V16.52H334.091C332.491 16.52 331.491 16.68 331.091 17C330.691 17.32 330.491 18.2 330.491 19.64V55.34C330.491 56.78 330.691 57.66 331.091 57.98C331.491 58.3 332.491 58.46 334.091 58.46H336.371V59H319.571ZM285.971 59V58.4H288.251C289.851 58.4 290.831 58.24 291.191 57.92C291.591 57.56 291.791 56.66 291.791 55.22V19.52C291.791 18.08 291.591 17.2 291.191 16.88C290.831 16.56 289.851 16.4 288.251 16.4H285.971V15.86H302.771V16.4H300.491C298.891 16.4 297.891 16.58 297.491 16.94C297.091 17.3 296.891 18.2 296.891 19.64V36.8H301.931C306.971 36.8 311.031 37.82 314.111 39.86C317.191 41.9 318.731 44.58 318.731 47.9C318.731 51.22 317.191 53.9 314.111 55.94C311.031 57.98 306.971 59 301.931 59H285.971ZM296.891 37.82V54.74C296.891 56.1 296.531 57.12 295.811 57.8V57.92H300.671C304.711 57.92 307.771 57.08 309.851 55.4C311.971 53.68 313.031 51.18 313.031 47.9C313.031 44.62 311.971 42.12 309.851 40.4C307.731 38.68 304.671 37.82 300.671 37.82H296.891Z" fill="black"/>
</svg>
