<svg width="43" height="43" viewBox="0 0 43 43" fill="none" xmlns="http://www.w3.org/2000/svg">
<path d="M21.5 17.9167C21.5 15.0657 20.3674 12.3314 18.3514 10.3154C16.3354 8.29933 13.6011 7.16675 10.75 7.16675H5.375V10.7501C5.375 13.6012 6.50759 16.3355 8.5236 18.3515C10.5396 20.3675 13.2739 21.5001 16.125 21.5001H21.5" stroke="#1B4F30" stroke-opacity="0.8" stroke-width="4.59935" stroke-linecap="round" stroke-linejoin="round"/>
<path d="M21.5 25.0834C21.5 22.2323 22.6326 19.498 24.6486 17.482C26.6646 15.466 29.3989 14.3334 32.25 14.3334H37.625V16.125C37.625 18.9761 36.4924 21.7104 34.4764 23.7264C32.4604 25.7425 29.7261 26.875 26.875 26.875H21.5" stroke="#1B4F30" stroke-opacity="0.8" stroke-width="4.59935" stroke-linecap="round" stroke-linejoin="round"/>
<path d="M21.5 35.8334V17.9167" stroke="#1B4F30" stroke-opacity="0.8" stroke-width="4.59935" stroke-linecap="round" stroke-linejoin="round"/>
</svg>
