<svg width="97" height="97" viewBox="0 0 97 97" fill="none" xmlns="http://www.w3.org/2000/svg">
<path d="M48.5699 0C21.7446 0 0 21.6923 0 48.453C0 68.9782 12.8049 86.5024 30.8758 93.5594C30.4473 89.7217 30.0675 83.85 31.0338 79.6668C31.9211 75.8776 36.7313 55.5888 36.7313 55.5888C36.7313 55.5888 35.2758 52.6666 35.2758 48.3894C35.2758 41.6628 39.2017 36.6277 44.0605 36.6277C48.2083 36.6277 50.2168 39.7227 50.2168 43.4483C50.2168 47.6012 47.5732 53.8215 46.1967 59.5841C45.042 64.4009 48.6185 68.3295 53.3831 68.3295C62.0099 68.3295 68.6554 59.2507 68.6554 46.1462C68.6554 34.5876 60.2991 26.4727 48.3663 26.4727C34.5495 26.4727 26.4454 36.8308 26.4454 47.486C26.4454 51.6541 28.0438 56.1375 30.0554 58.5535C30.4504 59.0415 30.499 59.4689 30.3866 59.96C30.0219 61.4757 29.1985 64.8071 29.0404 65.471C28.8186 66.3713 28.3446 66.5592 27.4117 66.1348C21.3648 63.3399 17.5513 54.4975 17.5513 47.3617C17.5513 32.0959 28.694 18.0426 49.6486 18.0426C66.4888 18.0426 79.5915 30.0406 79.5915 46.0188C79.5915 62.7397 69.0352 76.1898 54.3494 76.1898C49.4268 76.1898 44.805 73.6465 43.1763 70.6152L40.1376 82.1252C39.0467 86.3418 36.0689 91.6285 34.0603 94.8356C38.6183 96.224 43.4133 97 48.4453 97C75.225 97 97 75.3229 97 48.547C97 21.7863 75.2219 0.109128 48.4453 0.109128L48.5699 0Z" fill="#A0A57F"/>
</svg>
