<svg width="97" height="97" viewBox="0 0 97 97" fill="none" xmlns="http://www.w3.org/2000/svg">
<path d="M48.5 0C21.7061 0 0 21.7092 0 48.5C0 75.2908 21.7092 97 48.5 97C75.2939 97 97 75.2908 97 48.5C97 21.7092 75.2908 0 48.5 0ZM72.3213 33.2272L64.3611 70.738C63.7728 73.3977 62.1895 74.0423 59.9804 72.7907L47.8554 63.8542L42.0073 69.4864C41.3627 70.131 40.8151 70.6786 39.5635 70.6786L40.424 58.3377L62.8936 38.0365C63.8729 37.176 62.6776 36.6879 61.3854 37.5484L33.6152 55.0303L21.6466 51.2942C19.0464 50.4744 18.987 48.694 22.1942 47.4424L68.9545 29.4098C71.126 28.6275 73.0222 29.9386 72.3182 33.2241L72.3213 33.2272Z" fill="#A0A57F"/>
</svg>
